<svg width="59" height="42" viewBox="0 0 59 42" fill="none" xmlns="http://www.w3.org/2000/svg"><path d="M52.4941 22.3213c-1.3584 3.9895-5.4089 6.6451-9.4719 7.9668M25.6115 8.51707l-.673-.44056c-2.019-1.33391-6.2689-1.68881-8.9734-.36713M42.8477 29.5904c.7478-.0611 1.4582-.4528 1.9069-1.1014l.0623-.0856c.7976-1.1626.486-2.729-.6979-3.5123l-5.6957-5.2622M5.58325 24.3652c.68547 1.3707 1.63266 2.6434 2.81665 3.7326M30.8585 22.3213l11.2416 7.4528c1.184.7832 1.4956 2.3496.698 3.5122l-.0624.0857c-.7976 1.1626-2.3929 1.4685-3.5768.6853l-11.7153-7.7587M27.4312 26.311l10.793 7.1591c1.184.7832 1.4831 2.3497.6979 3.5123l-.0623.0856c-.7977 1.1626-2.3929 1.4686-3.5769.6853l-9.6713-6.3758" stroke="#F74852" stroke-width="1.75" stroke-miterlimit="10" stroke-linecap="round" stroke-linejoin="round"/><path d="M27.0946 38.5366l2.0066 1.3217c1.184.7832 2.7793.4772 3.5769-.6853l.0623-.0857c.7976-1.1626.4861-2.729-.6979-3.5122l-6.406-4.2221M41.6763 5.05405c-2.7044-1.33392-5.4837-.69756-7.6772.17133l-2.1312.8444L19.031 11.1117c1.0843 2.6434 4.1377 3.9284 6.8297 2.8759l4.2001-1.6154 2.4054 3.806c2.0813 3.2675 6.4558 4.2587 9.7834 2.215M13.0363 30.7408l3.5769-4.8339c.8599-1.1503.5982-2.7657-.5733-3.6101-1.1715-.8444-2.8167-.5874-3.6766.5629l-3.5769 4.8339c-.85995 1.1504-.59822 2.7658.5733 3.6102 1.1715.8444 2.8166.5874 3.6766-.563z" stroke="#F74852" stroke-width="1.75" stroke-miterlimit="10" stroke-linecap="round" stroke-linejoin="round"/><path d="M17.2861 33.7883l5.0475-6.8042c.8599-1.1504.5982-2.7658-.5733-3.6102-1.1715-.8444-2.8167-.5874-3.6766.563l-5.0475 6.8042c-.86 1.1503-.5983 2.7657.5733 3.6101 1.1715.8322 2.8166.5874 3.6766-.5629z" stroke="#F74852" stroke-width="1.75" stroke-miterlimit="10" stroke-linecap="round" stroke-linejoin="round"/><path d="M21.5361 36.8229l3.5768-4.834c.86-1.1503.5983-2.7657-.5733-3.6101-1.1715-.8444-2.8166-.5874-3.6766.5629l-3.5768 4.834c-.86 1.1503-.5983 2.7657.5733 3.6101 1.1715.8444 2.8166.5874 3.6766-.5629z" stroke="#F74852" stroke-width="1.75" stroke-miterlimit="10" stroke-linecap="round" stroke-linejoin="round"/><path d="M25.7861 39.858l2.1436-2.9003c.8599-1.1504.5982-2.7657-.5733-3.6102-1.1715-.8444-2.8167-.5874-3.6766.563l-2.1436 2.9003c-.86 1.1504-.5983 2.7658.5733 3.6102 1.1715.8444 2.8166.5874 3.6766-.563zM13.2606 2.39844l4.0629 2.65559L5.19702 24.9159l-4.10034-2.5944L13.2606 2.39844zM45.7392 1.07666l-4.0629 2.65559L53.8527 23.6553l4.0629-2.6556L45.7392 1.07666z" stroke="#F74852" stroke-width="1.75" stroke-miterlimit="10" stroke-linecap="round" stroke-linejoin="round"/></svg>