<svg width="50" height="48" viewBox="0 0 50 48" fill="none" xmlns="http://www.w3.org/2000/svg"><path d="M36.4535 33.8457l9.8721-2.1279c.9651-.2351 2.1279.2469 2.5233 1.2109.4302 1.0463-.3024 2.1043-1.2675 2.6216l-17.2325 7.3358c-2.7907 1.058-6.1628 1.54-9.1512 1.54-2.0349 0-3.6512-.1881-5.6163-.6936l-1.9535-.5878M13.6395 44.4144l-3.79066 2.5511-8.82559-16.5878 3.77907-2.5511 8.83718 16.5878z" stroke="#F74852" stroke-width="1.75" stroke-miterlimit="10" stroke-linecap="round" stroke-linejoin="round"/><path d="M21.2093 36.7612h11.9884c1.7442 0 3.1512-1.4343 3.1512-3.1859 0-1.7634-1.4186-3.1859-3.1512-3.1859H25l-1.0814-.8112c-2.5814-1.9515-5.7093-3.0095-8.9418-3.0095-2.0349 0-4.0465.4232-5.91863 1.2344l-3 1.3166M27.5232 23.9941c6.2743 0 11.3605-5.1423 11.3605-11.4857 0-6.34332-5.0862-11.48563-11.3605-11.48563-6.2742 0-11.3604 5.14231-11.3604 11.48563 0 6.3434 5.0862 11.4857 11.3604 11.4857z" stroke="#F74852" stroke-width="1.75" stroke-miterlimit="10" stroke-linecap="round" stroke-linejoin="round"/><path d="M23.7325 17.6223h5.0466c1.3953 0 2.5232-1.1403 2.5232-2.5511 0-1.4107-1.1279-2.551-2.5232-2.551h-2.5233c-1.3953 0-2.5233-1.1404-2.5233-2.55111 0-1.41072 1.128-2.55106 2.5233-2.55106h5.0465M27.5233 4.85522v2.55107M27.5233 17.6223v2.5511" stroke="#F74852" stroke-width="1.75" stroke-miterlimit="10" stroke-linecap="round" stroke-linejoin="round"/></svg>