<svg width="38" height="46" viewBox="0 0 38 46" fill="none" xmlns="http://www.w3.org/2000/svg"><g clip-path="url(#clip0)" stroke="#F24B5A" stroke-width="2" stroke-miterlimit="10" stroke-linecap="round" stroke-linejoin="round"><path d="M18.392 44.9362c.3895.1438.817.1438 1.216 0 6.175-2.2521 17.442-9.775 17.442-16.3779V8.29915c0-1.04459-.8075-1.8975-1.824-1.94542-8.3315-.38333-13.034-3.31583-15.048-4.97375-.6935-.575-1.672-.575-2.3655 0-2.014 1.64833-6.707 4.59042-15.04799 4.97375-1.007.04792-1.814498.90083-1.814498 1.94542V28.5583c0 6.6029 11.266988 14.1258 17.441988 16.3779z"/><path d="M24.7 33.5416H13.3c-2.0995 0-3.8-1.7154-3.8-3.8333V20.125c0-.5271.4275-.9584.95-.9584h17.1c.5225 0 .95.4313.95.9584v9.5833c0 2.1179-1.7005 3.8333-3.8 3.8333zM12.35 19.1666V17.25c0-3.6896 2.9925-6.7084 6.65-6.7084s6.65 3.0188 6.65 6.7084v1.9166"/><path d="M19 26.8333c1.0493 0 1.9-.8581 1.9-1.9167 0-1.0585-.8507-1.9167-1.9-1.9167s-1.9.8582-1.9 1.9167c0 1.0586.8507 1.9167 1.9 1.9167zM19 26.8333v2.875"/></g><defs><clipPath id="clip0"><path fill="#fff" d="M0 0h38v46H0z"/></clipPath></defs></svg>